# xmcd
#
# Track frame offsets:
#	183
#	8173
#	19388
#	30595
#	45590
#	55988
#	67320
#	82278
#	93648
#	103815
#	116328
#	129018
#	144458
#	156668
#	169388
#	188615
#	204998
#	215593
#	227968
#
# Disc length: 3158
#
# Revision: 6
# Processed by: cddbd v1.5.1PL0 Copyright (c) Steve Scherf et al.
# Submitted via: CDex 1.51
# Normalized: r4:TSWAP
#
DISCID=160c5413
DTITLE=Various Artist - Country and Western Favourites - Volume 1
DYEAR=1992
DGENRE=Country
TTITLE0=George Jones - Jambalaya
TTITLE1=Waylon Jennings - Sally Was A Good Old Girl
TTITLE2=Conway Twitty - Have I been Away Too Long
TTITLE3=Billy Joe Spears - Crystal Chandeliers
TTITLE4=Frankie Laine - Mule Skinner Blues
TTITLE5=Johnny Cash - Mean Eyed Cat
TTITLE6=Willie Nelson - Face Of A Fighter
TTITLE7=Don Williams - Follow Me Back To Louisville
TTITLE8=Faron Young - Hello Walls
TTITLE9=Bobby Helms - Fraulein
TTITLE10=Freddy Fender - Silver Wings
TTITLE11=Ray Pillow - How Do I Hide From A Memory
TTITLE12=Gene Simmons - Catahoula Cur Dog
TTITLE13=Johnny Paycheck - Georgia In A Jug
TTITLE14=Dave Travis - Sweet Country music
TTITLE15=Rex Allen Jnr - Memory Train
TTITLE16=Carl Perkins - What Am I Living For
TTITLE17=Ray Price - Rain And Tears
TTITLE18=Guy Mitchell - Singing The Blues
EXTD=YEAR: 1992
EXTT0=
EXTT1=
EXTT2=
EXTT3=
EXTT4=
EXTT5=
EXTT6=
EXTT7=
EXTT8=
EXTT9=
EXTT10=
EXTT11=
EXTT12=
EXTT13=
EXTT14=
EXTT15=
EXTT16=
EXTT17=
EXTT18=
PLAYORDER=
